<svg xmlns="http://www.w3.org/2000/svg" width="1200" height="340" viewBox="0 0 1200 340" fill="none">
  <defs>
    <clipPath id="round"><rect width="1200" height="340" rx="28"/></clipPath>
    <radialGradient id="glowOrange" cx="0.5" cy="0.5" r="0.5">
      <stop offset="0%" stop-color="#E26F27" stop-opacity="0.30"/><stop offset="100%" stop-color="#E26F27" stop-opacity="0"/>
    </radialGradient>
    <radialGradient id="glowBlue" cx="0.5" cy="0.5" r="0.5">
      <stop offset="0%" stop-color="#58A6FF" stop-opacity="0.15"/><stop offset="100%" stop-color="#58A6FF" stop-opacity="0"/>
    </radialGradient>
    <linearGradient id="plateBase" x1="0" y1="0" x2="0" y2="1">
      <stop offset="0%" stop-color="#1A212B"/><stop offset="100%" stop-color="#11161E"/>
    </linearGradient>
    <linearGradient id="plateTop" x1="0" y1="0" x2="1" y2="0">
      <stop offset="0%" stop-color="#3A2317"/><stop offset="55%" stop-color="#4A2C18"/><stop offset="100%" stop-color="#2A1B12"/>
    </linearGradient>
    <linearGradient id="seam" x1="0" y1="0" x2="1" y2="0">
      <stop offset="0%" stop-color="#E26F27" stop-opacity="0"/><stop offset="22%" stop-color="#FF8C43"/>
      <stop offset="78%" stop-color="#FF8C43"/><stop offset="100%" stop-color="#E26F27" stop-opacity="0"/>
    </linearGradient>
    <linearGradient id="hair" x1="0" y1="0" x2="1" y2="0">
      <stop offset="0%" stop-color="#30363D" stop-opacity="0"/><stop offset="50%" stop-color="#3D4650"/>
      <stop offset="100%" stop-color="#30363D" stop-opacity="0"/>
    </linearGradient>
    <pattern id="dots" width="26" height="26" patternUnits="userSpaceOnUse">
      <circle cx="1.2" cy="1.2" r="1.2" fill="#8B949E" fill-opacity="0.075"/>
    </pattern>
    <filter id="soft" x="-60%" y="-60%" width="220%" height="220%"><feGaussianBlur stdDeviation="9"/></filter>
    <filter id="softer" x="-60%" y="-60%" width="220%" height="220%"><feGaussianBlur stdDeviation="3"/></filter>
  </defs>

  <g clip-path="url(#round)" font-family="Inter, ui-sans-serif, -apple-system, 'Segoe UI', Helvetica, Arial, sans-serif">
    <rect width="1200" height="340" fill="#0B0F16"/>
    <rect width="1200" height="340" fill="url(#dots)"/>
    <ellipse cx="905" cy="180" rx="330" ry="215" fill="url(#glowOrange)"/>
    <ellipse cx="150" cy="20" rx="360" ry="210" fill="url(#glowBlue)"/>

    <g>
      <!-- DPA+ Wortmarke · cdn.prozesshub.eu/assets/brand/v1/logo/wide-orange.svg, auf Weiss gesetzt -->
      <g transform="translate(52.05,85.40) scale(0.15000)" fill="#E6EDF3"><g><g transform="translate(121.634437, 184.728004)"><g><path d="M 90.09375 -140.15625 C 105.175781 -140.15625 116.625 -136.25 124.4375 -128.4375 C 132.25 -120.632812 136.15625 -109.191406 136.15625 -94.109375 L 136.15625 -46.046875 C 136.15625 -30.960938 132.25 -19.515625 124.4375 -11.703125 C 116.625 -3.898438 105.175781 0 90.09375 0 L 12.015625 0 L 12.015625 -140.15625 Z M 100.109375 -94.109375 C 100.109375 -106.117188 94.101562 -112.125 82.09375 -112.125 L 48.046875 -112.125 L 48.046875 -28.03125 L 82.09375 -28.03125 C 94.101562 -28.03125 100.109375 -34.035156 100.109375 -46.046875 Z M 100.109375 -94.109375 " /></g></g></g><g><g transform="translate(305.836581, 184.728004)"><g><path d="M 12.015625 -140.15625 L 96.109375 -140.15625 C 110.117188 -140.15625 120.296875 -136.984375 126.640625 -130.640625 C 132.984375 -124.296875 136.15625 -114.117188 136.15625 -100.109375 L 136.15625 -80.09375 C 136.15625 -66.070312 132.984375 -55.890625 126.640625 -49.546875 C 120.296875 -43.210938 110.117188 -40.046875 96.109375 -40.046875 L 48.046875 -40.046875 L 48.046875 0 L 12.015625 0 Z M 100.109375 -100.109375 C 100.109375 -108.117188 96.101562 -112.125 88.09375 -112.125 L 48.046875 -112.125 L 48.046875 -68.078125 L 88.09375 -68.078125 C 96.101562 -68.078125 100.109375 -72.082031 100.109375 -80.09375 Z M 100.109375 -100.109375 " /></g></g></g><g><g transform="translate(488.036541, 184.728004)"><g><path d="M 37.046875 0 L -2 0 L 51.0625 -140.15625 L 91.09375 -140.15625 L 144.15625 0 L 105.109375 0 L 96.109375 -25.03125 L 46.046875 -25.03125 Z M 55.0625 -51.0625 L 87.09375 -51.0625 L 71.078125 -98.109375 Z M 55.0625 -51.0625 " /></g></g></g><g><g transform="translate(670.236524, 184.728004)"><g><path d="M 68.078125 -84.09375 L 102.109375 -84.09375 L 102.109375 -56.0625 L 68.078125 -56.0625 L 68.078125 -22.03125 L 40.046875 -22.03125 L 40.046875 -56.0625 L 6 -56.0625 L 6 -84.09375 L 40.046875 -84.09375 L 40.046875 -118.125 L 68.078125 -118.125 Z M 68.078125 -84.09375 " /></g></g></g></g>
      <text x="72" y="178" fill="#F0F6FC" font-size="50" font-weight="700" letter-spacing="-1.4">librechat-patches</text>
      <text x="72" y="219" fill="#9BA7B4" font-size="18.5" letter-spacing="-0.15">Enterprise needs it configurable. Upstream hardcodes it,</text>
      <text x="72" y="246" fill="#9BA7B4" font-size="18.5" letter-spacing="-0.15">and the request to open it up is 16 months old.</text>
    </g>

    <g transform="translate(742,60)">
      <ellipse cx="192" cy="212" rx="176" ry="16" fill="#000000" fill-opacity="0.55" filter="url(#soft)"/>
      <g transform="translate(0,150)">
        <rect x="0" y="0" width="384" height="60" rx="14" fill="url(#plateBase)" stroke="#3A4450"/>
        <text x="22" y="25" fill="#6E7A87" font-size="10.5" font-weight="600" letter-spacing="1.8">RESULT</text>
        <text x="22" y="45" fill="#F0F6FC" font-size="14.5" font-weight="600">ghcr.io/dpa-plus/librechat-api</text>
        <circle cx="358" cy="30" r="4" fill="#3FB950"/>
      </g>
      <g transform="translate(28,96)">
        <rect x="0" y="0" width="328" height="38" rx="10" fill="url(#plateTop)" stroke="#E26F27" stroke-opacity="0.75"/>
        <rect x="0" y="0" width="328" height="38" rx="10" fill="none" stroke="#FF8C43" stroke-opacity="0.22" stroke-width="3" filter="url(#softer)"/>
        <text x="18" y="24" fill="#FFB07A" font-size="13.5" font-weight="600">patches/001-image-resize</text>
        <text x="310" y="24" text-anchor="end" fill="#B9713F" font-size="11.5" font-weight="600" letter-spacing="0.6">1 FILE</text>
      </g>
      <rect x="28" y="141" width="328" height="2" rx="1" fill="url(#seam)" filter="url(#softer)"/>
      <g transform="translate(28,36)">
        <rect x="0" y="0" width="328" height="56" rx="12" fill="#12171F" stroke="#2A313B"/>
        <text x="18" y="23" fill="#5C6773" font-size="10.5" font-weight="600" letter-spacing="1.8">BASE</text>
        <text x="18" y="43" fill="#8B949E" font-size="14" font-weight="500">ghcr.io/danny-avila/librechat-api</text>
      </g>
      <rect x="52" y="18" width="280" height="1" fill="url(#hair)"/>
      <rect x="76" y="6" width="232" height="1" fill="url(#hair)" opacity="0.55"/>
    </g>
    <rect x="0.5" y="0.5" width="1199" height="339" rx="28" fill="none" stroke="#232A33"/>
  </g>
</svg>
